<?xml version="1.0" standalone="no"?>
<!DOCTYPE svg PUBLIC "-//W3C//DTD SVG 20010904//EN"
 "http://www.w3.org/TR/2001/REC-SVG-20010904/DTD/svg10.dtd">
<svg version="1.0" xmlns="http://www.w3.org/2000/svg"
 width="700.000000pt" height="700.000000pt" viewBox="0 0 700.000000 700.000000"
 preserveAspectRatio="xMidYMid meet">
<metadata>
Created by potrace 1.14, written by Peter Selinger 2001-2017
</metadata>
<g transform="translate(0.000000,700.000000) scale(0.100000,-0.100000)"
fill="#000000" stroke="none">
<path d="M532 5770 c-327 -28 -488 -144 -522 -376 -14 -97 -13 -1818 1 -1920
15 -110 42 -175 100 -239 85 -93 170 -134 442 -215 569 -170 979 -488 1136
-882 39 -96 46 -132 71 -334 25 -204 33 -239 76 -330 59 -126 175 -210 341
-248 64 -14 181 -16 1010 -16 1029 0 1008 -1 1122 60 31 17 101 69 156 117
175 150 304 242 365 258 170 46 207 58 266 87 132 64 239 179 277 298 10 30
24 130 32 226 17 197 43 302 110 439 100 205 270 357 469 421 40 12 151 36
247 53 212 36 310 66 412 126 91 54 199 155 251 238 98 153 116 289 97 737
-17 416 -25 515 -51 582 -38 103 -129 174 -271 215 -58 16 -112 18 -609 18
-694 1 -723 5 -914 135 -87 59 -180 95 -285 110 -40 6 -204 9 -364 8 -161 -1
-379 4 -485 10 -228 13 -370 4 -557 -33 -289 -59 -446 -14 -688 197 -166 145
-289 210 -458 244 -73 15 -184 17 -884 19 -440 2 -842 -1 -893 -5z m1758
-1350 l0 -900 900 0 900 0 0 -910 0 -910 -915 0 -915 0 0 900 0 900 -900 0
-900 0 0 910 0 910 915 0 915 0 0 -900z m1762 468 c1 -7 3 -132 3 -277 0 -171
4 -265 10 -268 15 -5 138 99 154 131 13 24 12 27 -12 47 -32 25 -34 40 -6 65
18 16 37 19 135 19 102 0 115 -2 135 -21 32 -32 12 -59 -57 -79 -45 -13 -69
-29 -121 -79 -77 -76 -82 -57 58 -232 111 -137 146 -170 211 -193 50 -19 60
-47 28 -76 -30 -28 -163 -33 -207 -8 -17 10 -93 96 -169 191 -75 95 -142 171
-148 169 -14 -5 -20 -147 -9 -214 7 -42 13 -50 46 -68 30 -16 37 -25 35 -45
-5 -39 -60 -53 -192 -48 -98 4 -111 7 -127 27 -22 27 -15 47 23 67 16 8 33 26
38 40 13 34 13 639 0 686 -9 31 -17 38 -53 50 -52 16 -62 48 -22 74 62 41 242
71 247 42z m807 -23 c79 -40 51 -147 -42 -162 -73 -11 -127 22 -127 80 0 79
91 123 169 82z m1661 -241 c12 -32 -7 -74 -49 -103 -29 -21 -29 -21 -14 -63
38 -108 -21 -243 -128 -298 -63 -33 -161 -45 -241 -32 -81 14 -98 7 -98 -39 0
-51 35 -63 164 -59 281 10 327 2 367 -64 27 -44 25 -129 -4 -181 -84 -149
-372 -209 -565 -118 -121 57 -146 176 -51 243 l31 22 -35 29 c-63 52 -58 114
14 180 l41 38 -31 38 c-46 58 -59 131 -37 208 14 48 28 70 71 112 86 84 145
94 395 68 47 -5 61 -2 95 19 52 31 63 31 75 0z m-3642 -38 c59 -33 96 -76 118
-138 16 -45 22 -147 10 -167 -5 -8 -73 -11 -222 -11 -135 0 -223 -4 -235 -11
-18 -9 -19 -17 -14 -52 21 -126 132 -211 249 -191 49 8 64 15 134 62 58 39 84
37 90 -8 5 -30 -80 -110 -156 -147 -50 -25 -68 -28 -152 -28 -84 1 -101 4
-153 30 -70 35 -130 97 -165 173 -23 49 -27 70 -27 152 1 81 5 103 28 153 50
108 92 150 194 193 50 21 70 24 153 21 82 -2 102 -7 148 -31z m706 0 c80 -47
89 -80 93 -321 2 -110 6 -210 8 -222 3 -14 15 -24 34 -28 69 -15 62 -72 -12
-105 -69 -32 -114 -27 -159 17 -38 37 -38 37 -66 20 -79 -52 -178 -70 -261
-47 -63 17 -125 82 -141 150 -20 84 -1 152 60 212 65 63 121 79 265 77 l110
-1 -1 48 c-1 104 -29 144 -101 144 -57 0 -93 -19 -138 -75 -58 -70 -135 -73
-150 -5 -13 59 40 117 136 151 43 16 76 19 164 17 100 -3 114 -6 159 -32z
m1308 -235 c-2 -145 -1 -279 3 -298 4 -25 16 -40 46 -59 53 -33 51 -63 -6 -82
-60 -21 -248 -12 -275 13 -29 26 -25 43 16 67 19 11 40 32 45 45 10 28 11 329
1 388 -6 35 -13 42 -50 59 -54 25 -58 57 -9 83 51 27 148 52 192 50 l40 -2 -3
-264z m392 253 c3 -9 6 -31 6 -50 l0 -35 61 47 c55 44 66 48 125 52 45 3 78
-1 109 -12 53 -21 119 -90 135 -142 7 -22 14 -127 16 -239 4 -188 5 -201 24
-215 62 -45 63 -46 56 -68 -4 -12 -19 -25 -34 -29 -45 -13 -254 -9 -279 5 -35
19 -28 48 17 77 50 31 54 52 48 244 -3 123 -7 153 -24 186 -39 75 -134 85
-198 20 -45 -45 -56 -99 -56 -275 0 -127 2 -142 20 -160 11 -11 27 -20 35 -20
8 0 19 -10 26 -21 9 -18 7 -25 -10 -42 -17 -17 -36 -21 -128 -25 -134 -5 -186
9 -191 51 -3 23 2 29 28 38 17 6 35 19 40 29 11 20 14 390 4 427 -4 13 -21 28
-45 37 -75 30 -57 72 45 105 110 35 160 40 170 15z m-449 -1515 c4 -6 7 -187
6 -402 -1 -216 2 -405 7 -422 7 -24 17 -33 51 -44 37 -12 42 -16 39 -40 -2
-21 -13 -30 -61 -49 -32 -13 -83 -27 -113 -33 -68 -13 -84 -3 -84 52 0 22 -3
39 -6 39 -3 0 -26 -16 -51 -35 -92 -70 -196 -80 -300 -29 -102 49 -155 146
-161 294 -5 109 17 190 69 266 81 118 240 165 384 115 l55 -19 6 25 c10 37 -8
135 -26 144 -8 4 -28 14 -45 21 -38 17 -44 50 -12 71 62 40 227 72 242 46z"/>
<path d="M490 4413 l0 -883 885 0 885 0 -2 883 -3 882 -882 1 -883 1 0 -884z
m1444 727 c33 -12 44 -54 22 -79 -15 -16 -15 -19 -1 -24 17 -7 20 -49 5 -77
-24 -45 -120 -31 -133 20 -8 31 23 40 41 12 17 -26 47 -29 56 -6 7 19 -10 44
-30 44 -22 0 -16 27 6 33 11 3 20 12 20 21 0 24 -30 33 -42 13 -11 -20 -48
-23 -48 -4 0 17 12 32 35 45 25 14 37 15 69 2z m194 -17 c-2 -12 -16 -20 -42
-23 -22 -3 -41 -10 -43 -16 -2 -7 8 -9 26 -6 65 9 99 -85 45 -127 -30 -24 -55
-26 -87 -10 -25 14 -37 28 -37 47 0 18 41 15 55 -5 19 -25 45 -9 45 28 l0 31
-45 -6 c-50 -8 -51 -7 -39 67 l7 37 59 0 c51 0 59 -2 56 -17z m-796 -239 c84
-24 152 -87 174 -161 34 -116 -12 -222 -116 -266 -21 -9 -28 -16 -17 -16 59
-3 154 -89 175 -160 16 -52 15 -138 -2 -195 -21 -70 -58 -111 -133 -148 l-68
-33 -297 -3 -298 -3 -2 496 c-2 273 -1 499 1 501 2 2 121 4 265 4 211 0 271
-3 318 -16z m738 -342 l0 -88 -60 -12 c-73 -16 -132 -65 -149 -127 -6 -23 -11
-122 -11 -227 l0 -188 -85 0 -85 0 0 355 0 355 85 0 85 0 0 -45 0 -45 33 36
c32 35 117 73 165 74 21 0 22 -3 22 -88z"/>
<path d="M940 4625 l0 -126 149 3 c133 3 153 5 178 24 66 49 62 158 -7 198
-30 18 -57 21 -177 25 l-143 3 0 -127z"/>
<path d="M940 4210 l0 -140 155 0 c165 0 203 8 239 49 28 31 32 116 9 161 -31
60 -66 70 -245 70 l-158 0 0 -140z"/>
<path d="M2290 2615 l0 -885 885 0 885 0 0 885 0 885 -885 0 -885 0 0 -885z
m1465 725 c0 -10 -13 -16 -42 -18 -54 -4 -62 -32 -9 -32 60 0 88 -72 46 -118
-36 -39 -130 -21 -130 25 0 18 29 17 50 -2 25 -22 50 -9 50 26 0 32 -24 49
-43 30 -6 -6 -19 -11 -29 -11 -14 0 -18 8 -18 38 0 77 6 83 69 80 42 -2 56 -7
56 -18z m157 3 c37 -34 12 -58 -33 -30 -17 10 -22 9 -35 -7 -21 -29 -18 -32
23 -28 43 5 63 -15 63 -62 0 -39 -26 -66 -64 -66 -37 0 -49 7 -65 37 -24 47
-5 152 31 166 27 11 62 6 80 -10z m-915 -258 c69 -20 126 -65 152 -117 59
-122 25 -245 -82 -300 l-41 -20 36 -13 c96 -32 149 -107 156 -219 9 -144 -46
-240 -166 -288 -54 -21 -74 -22 -349 -26 l-293 -4 0 501 0 501 268 0 c209 0
280 -3 319 -15z m768 -270 c72 -19 118 -53 147 -108 21 -39 22 -59 28 -312 3
-148 9 -276 13 -282 6 -10 -13 -13 -87 -13 l-94 0 -7 30 -6 29 -37 -24 c-42
-27 -138 -55 -193 -55 -92 0 -184 52 -218 124 -25 50 -28 141 -7 189 18 41 71
92 118 112 30 12 307 75 332 75 10 0 7 37 -5 63 -16 35 -49 47 -130 47 -61 0
-73 -3 -94 -25 -14 -13 -25 -36 -25 -50 0 -25 0 -25 -90 -25 -100 0 -100 -1
-79 73 19 71 95 135 186 156 61 14 184 12 248 -4z"/>
<path d="M3847 3243 c-10 -10 -8 -51 2 -57 5 -4 16 -3 25 0 21 8 21 50 0 58
-19 7 -19 7 -27 -1z"/>
<path d="M2600 2826 l0 -126 133 0 c118 0 138 3 177 23 58 28 78 78 58 140
-23 72 -48 82 -219 85 l-149 4 0 -126z"/>
<path d="M2600 2416 l0 -146 155 0 c165 0 203 8 239 49 30 33 33 126 7 168
-36 57 -68 66 -243 71 l-158 4 0 -146z"/>
<path d="M3724 2440 c-12 -5 -62 -16 -110 -26 -70 -14 -95 -24 -116 -45 -63
-62 -14 -139 88 -139 68 0 112 18 147 59 23 28 27 42 27 97 0 67 -1 68 -36 54z"/>
<path d="M6102 4514 c-41 -28 -65 -91 -60 -156 5 -68 27 -105 81 -131 29 -15
43 -16 74 -8 113 31 146 190 58 278 -28 28 -40 33 -82 33 -28 0 -58 -7 -71
-16z"/>
<path d="M6130 3901 l-114 -6 -14 -37 c-17 -44 -4 -79 41 -112 25 -18 43 -21
135 -21 122 0 171 17 203 69 26 43 24 71 -7 95 -29 22 -22 22 -244 12z"/>
<path d="M2612 4510 c-37 -22 -75 -96 -70 -133 3 -22 6 -22 158 -22 l155 0 -3
35 c-9 112 -143 179 -240 120z"/>
<path d="M3320 4232 c-74 -37 -90 -134 -31 -192 54 -55 176 -48 207 12 22 43
32 177 13 189 -25 16 -151 10 -189 -9z"/>
<path d="M4439 2707 c-69 -37 -94 -95 -94 -222 0 -93 2 -106 30 -161 49 -95
141 -130 224 -86 62 33 71 65 71 248 l0 162 -35 30 c-34 30 -89 52 -131 52
-11 0 -41 -10 -65 -23z"/>
</g>
</svg>
